<svg version="1.1" xmlns="http://www.w3.org/2000/svg" xmlns:xlink="http://www.w3.org/1999/xlink" width="177" height="52" viewBox="0,0,256,75.20313"><g fill="#000000" fill-rule="nonzero" stroke="none" stroke-width="1" stroke-linecap="butt" stroke-linejoin="miter" stroke-miterlimit="10" stroke-dasharray="" stroke-dashoffset="0" font-family="none" font-weight="none" font-size="none" text-anchor="none" style="mix-blend-mode: normal"><g transform="translate(0.30734,-0.00296) scale(1.44633,1.44633)"><path d="M7.79073,23.3826l2.65397,-1.3088l4.195,-6.2819l1.2842,-0.5234l1.3698,6.3691l-1.7979,0.2617l-1.3698,-2.6174l-1.0273,4.1007h4.5374l4.7087,1.2214l1.8835,-1.2214l3.1677,3.3154l1.3698,-6.1074l2.2259,2.2685l1.3698,-1.9195l2.2259,-0.6107l3.2533,-3.0537l0.5136,-1.4833l2.654,0.4363l1.113,1.4832l-1.9691,4.1879l4.8799,-2.5302v-1.2215l1.8835,-0.4362l2.0547,2.094l2.0547,-2.5302v-1.745l3.3389,-2.3557l1.3698,-2.0067h2.1403l3.7669,-7.76512l3.2533,-3.40268l1.1985,1.91946l-1.8834,2.44296l0.6849,1.57047l1.7978,0.34899l1.4554,6.45642v5.4093l2.5684,3.5772l1.2842,4.9732l-4.4518,-2.8792l-1.9691,-8.2886l-1.1986,0.2617l-0.1712,5.5839l-3.2533,5.3222l-0.9417,8.1141l2.2259,0.5235l0.9417,-1.1343l2.1403,2.443l1.6267,7.3289l-0.1713,4.7114h-2.0546l-0.7706,-6.6309l-1.4554,2.0067l-3.1676,-0.698l-2.5684,-2.1812l-2.9108,1.047l0.1712,4.7114l-2.3115,0.6107l-3.4245,2.6175l-4.1094,-0.5235l-1.6266,-0.9597l-2.5684,0.4362l0.8561,1.047l-2.0547,1.2215l-1.6266,-0.7853l-3.0821,1.396l-4.7087,-2.3557l-1.7978,-4.1879l-1.541,0.1745l-1.7979,-1.4832l-0.0856,-1.1343l-5.736,-0.6107l-0.9418,3.1409l-3.5957,-1.6577l-1.7979,-3.0537h-3.85251l-0.42806,4.8859l-2.22593,0.698l-1.11296,4.4497l-0.85612,-0.7853l-3.59572,-9.3355l4.28062,-2.094l-0.6849,-4.1007l-0.6849,-4.1879l1.88347,-2.7047l-0.59928,-1.6577l2.56837,-2.7919zM64.723,33.6779l3.9381,5.9328l1.2842,-0.5235l-1.6266,-2.4429l-3.5957,-3.8389zM24.4851,21.6376v-1.745l2.9965,-2.1812l2.5683,-1.3087h-2.9964l-2.654,1.5705l-1.6266,1.4832v2.1812z"></path><path d="M90.125,41.0004h4.7386v-5.1818h2.625c3.9804,0 6.6474,-2.3437 6.6474,-6.1022c0,-3.716 -2.599,-6.1705 -6.4769,-6.1705h-7.5341zM94.8636,32.1368v-4.8068h1.6705c1.6619,0 2.6591,0.8864 2.6591,2.3864c0,1.4914 -0.9972,2.4204 -2.6591,2.4204z"></path><path d="M111.969,41.2391c4.261,0 6.784,-2.7273 6.784,-6.75c0,-4.0227 -2.523,-6.75 -6.784,-6.75c-4.262,0 -6.784,2.7273 -6.784,6.75c0,4.0227 2.522,6.75 6.784,6.75zM112.003,37.7618c-1.262,0 -2.012,-1.2528 -2.012,-3.3068c0,-2.054 0.75,-3.3068 2.012,-3.3068c1.193,0 1.943,1.2528 1.943,3.3068c0,2.054 -0.75,3.3068 -1.943,3.3068z"></path><path d="M126.969,41.2391c3.878,0 6.255,-2.2245 6.307,-5.6932h-4.364c-0.102,1.3722 -0.844,2.1136 -1.875,2.1136c-1.236,0 -2.046,-1.0568 -2.046,-3.2045c0,-2.1477 0.81,-3.2046 2.046,-3.2046c1.04,0 1.747,0.7415 1.875,2.1137h4.364c-0.026,-3.4091 -2.455,-5.625 -6.307,-5.625c-4.262,0 -6.784,2.7273 -6.784,6.75c0,4.0227 2.522,6.75 6.784,6.75z"></path><path d="M141.523,41.2391c3.878,0 6.256,-2.2245 6.307,-5.6932h-4.363c-0.103,1.3722 -0.844,2.1136 -1.875,2.1136c-1.236,0 -2.046,-1.0568 -2.046,-3.2045c0,-2.1477 0.81,-3.2046 2.046,-3.2046c1.039,0 1.747,0.7415 1.875,2.1137h4.363c-0.025,-3.4091 -2.454,-5.625 -6.307,-5.625c-4.261,0 -6.784,2.7273 -6.784,6.75c0,4.0227 2.523,6.75 6.784,6.75z"></path><path d="M154.203,35.0004v-7.0909h-4.432v13.0909h4.432l3.648,-7.125v7.125h4.432v-13.0909h-4.432z"></path><path d="M172.212,41.0004h4.363v-13.0909h-6.136c-3.776,0 -6.162,1.9091 -6.136,4.5682c-0.017,1.4915 0.877,2.7273 2.446,3.4602l-2.583,5.0625h4.33l2.207,-4.3295h1.509zM172.212,33.8414h-1.671c-1.253,0 -1.832,-0.6137 -1.807,-1.1932c-0.025,-0.5455 0.52,-1.2273 1.705,-1.2273h1.773z"></path></g></g></svg>